<svg xmlns="http://www.w3.org/2000/svg" width="142" height="101" viewBox="0 0 142 101" fill="none">
    <path d="M71 56C56.635 56 45 44.365 45 30C45 15.635 56.635 4 71 4C85.365 4 97 15.635 97 30C97 44.365 85.365 56 71 56Z" fill="url(#paint0_linear_8_92)"/>
    <path d="M65.8 21.8967C64.3917 23.0667 63.2867 24.605 62.7017 26.3817C62.3767 27.335 62.2033 28.375 62.2033 29.4367V40.985C62.2033 41.9817 61.4017 42.7833 60.405 42.7833C59.4083 42.7833 58.6067 41.9817 58.6067 40.985V29.4367C58.6067 25.9267 59.9717 22.72 62.1817 20.3583C63.6983 18.7333 65.6267 17.4767 67.7933 16.7833C68.9633 16.3933 70.155 17.26 70.155 18.4733C70.155 19.2533 69.6567 19.925 68.92 20.185C67.7717 20.5317 66.71 21.1383 65.8 21.8967Z" fill="white"/>
    <path d="M85.3 29.35C85.3433 36.6517 79.4067 42.6967 72.105 42.7617C72.0617 42.7617 71.9967 42.7617 71.9533 42.7617C68.5517 42.7617 65.8 39.9884 65.8 36.5867V29.5234C65.8 29.5017 65.8 29.4584 65.8 29.4367C65.8 25.8834 68.8117 23.0234 72.4083 23.2834C75.4633 23.5 77.9333 25.9917 78.1283 29.0467C78.2583 31.1484 77.3267 33.055 75.8317 34.2467C74.6833 35.1784 72.95 34.3117 72.95 32.8384C72.95 32.2967 73.1883 31.7984 73.6 31.4517C74.2067 30.9534 74.575 30.195 74.5533 29.3717C74.51 28.0284 73.4267 26.9234 72.0833 26.8584C70.5883 26.7934 69.3533 27.985 69.3533 29.4584C69.3533 29.48 69.3533 29.5234 69.3533 29.545V36.4134C69.3533 37.9734 70.6317 39.2517 72.1917 39.2084C72.2133 39.2084 72.2567 39.2084 72.2783 39.2084C77.24 39.035 81.335 35.0917 81.6817 30.13C81.985 25.515 79.0817 21.5284 74.965 20.185C74.2283 19.9467 73.73 19.275 73.73 18.5167V18.4517C73.73 17.26 74.8783 16.3934 76.0267 16.7617C81.3783 18.4517 85.2567 23.435 85.3 29.35Z" fill="white"/>
    <circle cx="71" cy="30" r="29" stroke="#35C2C1" stroke-width="2"/>
    <path d="M11.7161 75.2572V78.7078H4.33333V82.6399H10.0309V85.9568H4.33333V93.2325H0V75.2572H11.7161Z" fill="#1E232C"/>
    <path d="M20.4095 79.644C21.2654 79.1358 22.2016 78.8683 23.1913 78.8683V83.5226H21.9341C20.7839 83.5226 19.9012 83.7633 19.2592 84.2716C18.6173 84.7531 18.2963 85.5823 18.2963 86.7592V93.2057H13.963V79.0288H18.2963V81.7037C18.8313 80.8477 19.5535 80.1522 20.4095 79.644Z" fill="#1E232C"/>
    <path d="M39.107 79.0288V93.2058H34.7469V90.6379C34.3457 91.4671 33.7305 92.1358 32.928 92.6173C32.1255 93.0988 31.1893 93.3663 30.1193 93.3663C28.4877 93.3663 27.2037 92.8313 26.2407 91.7346C25.2778 90.6379 24.7963 89.1667 24.7963 87.2675V79.0288H29.1296V86.7325C29.1296 87.6955 29.3704 88.4444 29.8786 88.9794C30.3868 89.5144 31.0556 89.7819 31.9115 89.7819C32.7942 89.7819 33.4897 89.5144 33.9979 88.9527C34.5062 88.3909 34.7737 87.5885 34.7737 86.572V79.0288H39.107Z" fill="#1E232C"/>
    <path d="M45.9547 89.5679H52.5082V93.2058H41.1934V89.7819L47.2922 82.6399H41.3004V79.0288H52.2675V82.4527L45.9547 89.5679Z" fill="#1E232C"/>
    <path d="M58.393 89.5679H64.9465V93.2058H53.6317V89.7819L59.7305 82.6399H53.7654V79.0288H64.7325V82.4527L58.393 89.5679Z" fill="#1E232C"/>
    <path d="M76.9033 80.2593C77.893 80.9815 78.5617 81.9445 78.9362 83.1482V74.4012H80.7284V93.2058H78.9095V89.4074C78.5617 90.6111 77.893 91.5741 76.8765 92.2963C75.8868 93.0185 74.6831 93.393 73.2922 93.393C72.035 93.393 70.9115 93.0988 69.9218 92.537C68.9321 91.9486 68.1564 91.1461 67.6214 90.0494C67.0597 88.9794 66.7922 87.7222 66.7922 86.2778C66.7922 84.8333 67.0597 83.5494 67.6214 82.4794C68.1831 81.4095 68.9321 80.5803 69.9218 80.0185C70.9115 79.4568 72.035 79.1626 73.2922 79.1626C74.7099 79.1626 75.9136 79.537 76.9033 80.2593ZM70.0021 82.2119C69.0658 83.2017 68.5844 84.5659 68.5844 86.2778C68.5844 87.9897 69.0658 89.3272 70.0021 90.3436C70.9383 91.3333 72.1955 91.8416 73.7469 91.8416C74.7366 91.8416 75.6193 91.6008 76.3951 91.1461C77.1708 90.6914 77.8128 90.0494 78.2407 89.1934C78.6955 88.3642 78.9095 87.3745 78.9095 86.2778C78.9095 85.1811 78.6955 84.2181 78.2407 83.3622C77.786 82.5329 77.1708 81.8642 76.3951 81.4095C75.6193 80.9547 74.7099 80.714 73.7469 80.714C72.1955 80.7408 70.9383 81.2222 70.0021 82.2119Z" fill="#1E232C"/>
    <path d="M84.5268 74.321C84.7675 74.107 85.0885 74 85.4897 74C85.891 74 86.1852 74.107 86.4259 74.321C86.6667 74.535 86.7737 74.8292 86.7737 75.2037C86.7737 75.5514 86.6667 75.8457 86.4259 76.0597C86.1852 76.3004 85.8642 76.4074 85.463 76.4074C85.0617 76.4074 84.7675 76.3004 84.5 76.0864C84.2593 75.8724 84.1255 75.5782 84.1255 75.2305C84.1523 74.856 84.286 74.5617 84.5268 74.321ZM86.3724 79.3498V93.2325H84.5803V79.3498H86.3724Z" fill="#1E232C"/>
    <path d="M99.6667 80.2593C100.656 80.9815 101.352 81.9445 101.7 83.1482V79.3498H103.465V93.5535C103.465 94.8375 103.198 95.961 102.663 96.9507C102.128 97.9136 101.379 98.6893 100.389 99.2243C99.4259 99.7593 98.3292 100.027 97.072 100.027C95.2531 100.027 93.7819 99.5988 92.6049 98.7161C91.4547 97.8334 90.679 96.6564 90.3313 95.1585H92.1235C92.4177 96.1749 92.9794 96.9774 93.8086 97.5659C94.6379 98.1544 95.6811 98.4486 96.965 98.4486C97.8477 98.4486 98.6502 98.2614 99.3724 97.8869C100.095 97.5124 100.656 96.9507 101.084 96.2017C101.512 95.4527 101.7 94.57 101.7 93.5535V89.4075C101.325 90.6112 100.656 91.5741 99.6667 92.2963C98.677 93.0186 97.4733 93.3931 96.0823 93.3931C94.8251 93.3931 93.7017 93.0988 92.7119 92.5371C91.7222 91.9486 90.9465 91.1461 90.4115 90.0494C89.8498 88.9795 89.5823 87.7223 89.5823 86.2778C89.5823 84.8334 89.8498 83.5494 90.4115 82.4795C90.9733 81.4095 91.7222 80.5803 92.7119 80.0186C93.7017 79.4568 94.8251 79.1626 96.0823 79.1626C97.4733 79.1626 98.677 79.5371 99.6667 80.2593ZM92.7922 82.212C91.856 83.2017 91.3745 84.5659 91.3745 86.2778C91.3745 87.9898 91.856 89.3272 92.7922 90.3437C93.7284 91.3334 94.9856 91.8416 96.537 91.8416C97.5268 91.8416 98.4095 91.6009 99.1852 91.1461C99.9609 90.6914 100.603 90.0494 101.031 89.1935C101.486 88.3642 101.7 87.3745 101.7 86.2778C101.7 85.1811 101.486 84.2182 101.031 83.3622C100.576 82.533 99.9609 81.8642 99.1852 81.4095C98.4095 80.9548 97.5 80.714 96.537 80.714C94.9588 80.7408 93.7284 81.2223 92.7922 82.212Z" fill="#1E232C"/>
    <path d="M107.29 74.321C107.531 74.107 107.852 74 108.253 74C108.654 74 108.949 74.107 109.189 74.321C109.43 74.535 109.537 74.8292 109.537 75.2037C109.537 75.5514 109.43 75.8457 109.189 76.0597C108.949 76.2737 108.628 76.3807 108.253 76.3807C107.852 76.3807 107.558 76.2737 107.29 76.0597C107.049 75.8457 106.916 75.5514 106.916 75.2037C106.916 74.856 107.049 74.5617 107.29 74.321ZM109.136 79.3498V93.2325H107.344V79.3498H109.136Z" fill="#1E232C"/>
    <path d="M119.3 91.6276V93.2058H117.642C116.305 93.2058 115.315 92.8848 114.646 92.2428C113.977 91.6009 113.656 90.5309 113.656 89.033V80.8745H111.543V79.3498H113.656V75.819H115.449V79.3498H119.274V80.9013H115.449V89.0865C115.449 90.0762 115.636 90.7449 115.984 91.1194C116.331 91.4939 116.973 91.6544 117.856 91.6544H119.3V91.6276Z" fill="#1E232C"/>
    <path d="M131.658 80.2593C132.648 80.9815 133.344 81.9445 133.691 83.1482V79.3498H135.457V93.2326H133.691V89.4075C133.317 90.6112 132.648 91.5741 131.658 92.2963C130.669 93.0186 129.465 93.3931 128.074 93.3931C126.817 93.3931 125.693 93.0988 124.704 92.5371C123.714 91.9486 122.938 91.1461 122.403 90.0494C121.842 88.9795 121.574 87.7223 121.574 86.2778C121.574 84.8334 121.842 83.5494 122.403 82.4795C122.965 81.4095 123.714 80.5803 124.704 80.0186C125.693 79.4568 126.817 79.1626 128.074 79.1626C129.465 79.1626 130.669 79.5371 131.658 80.2593ZM124.784 82.212C123.848 83.2017 123.366 84.5659 123.366 86.2778C123.366 87.9898 123.848 89.3272 124.784 90.3437C125.72 91.3334 126.977 91.8416 128.529 91.8416C129.519 91.8416 130.401 91.6009 131.177 91.1461C131.953 90.6914 132.595 90.0494 133.023 89.1935C133.477 88.3642 133.691 87.3745 133.691 86.2778C133.691 85.1811 133.477 84.2182 133.023 83.3622C132.568 82.533 131.953 81.8642 131.177 81.4095C130.401 80.9548 129.492 80.714 128.529 80.714C126.977 80.7408 125.72 81.2223 124.784 82.212Z" fill="#1E232C"/>
    <path d="M141.128 74.4012V93.2058H139.335V74.4012H141.128Z" fill="#1E232C"/>
    <defs>
        <linearGradient id="paint0_linear_8_92" x1="45" y1="30" x2="97" y2="30" gradientUnits="userSpaceOnUse">
            <stop stop-color="#00C3D4"/>
            <stop offset="1" stop-color="#00D8B6"/>
        </linearGradient>
    </defs>
</svg>
